<?xml version="1.0" encoding="UTF-8" standalone="no"?>
<!-- Created with Inkscape (http://www.inkscape.org/) -->

<svg
   xmlns:dc="http://purl.org/dc/elements/1.1/"
   xmlns:cc="http://creativecommons.org/ns#"
   xmlns:rdf="http://www.w3.org/1999/02/22-rdf-syntax-ns#"
   xmlns:svg="http://www.w3.org/2000/svg"
   xmlns="http://www.w3.org/2000/svg"
   xmlns:sodipodi="http://sodipodi.sourceforge.net/DTD/sodipodi-0.dtd"
   xmlns:inkscape="http://www.inkscape.org/namespaces/inkscape"
   width="500"
   height="500"
   id="svg2"
   sodipodi:version="0.32"
   inkscape:version="0.48.4 r9939"
   version="1.0"
   sodipodi:docname="AJAX.svg"
   inkscape:output_extension="org.inkscape.output.svg.inkscape">
  <defs
     id="defs4">
    <inkscape:perspective
       sodipodi:type="inkscape:persp3d"
       inkscape:vp_x="0 : 300.5 : 1"
       inkscape:vp_y="0 : 1000 : 0"
       inkscape:vp_z="601 : 300.5 : 1"
       inkscape:persp3d-origin="300.5 : 200.33333 : 1"
       id="perspective3380" />
    <inkscape:perspective
       id="perspective3990"
       inkscape:persp3d-origin="375 : 250 : 1"
       inkscape:vp_z="750 : 375 : 1"
       inkscape:vp_y="0 : 1000 : 0"
       inkscape:vp_x="0 : 375 : 1"
       sodipodi:type="inkscape:persp3d" />
  </defs>
  <sodipodi:namedview
     id="base"
     pagecolor="#ffffff"
     bordercolor="#666666"
     borderopacity="1.0"
     gridtolerance="10000"
     guidetolerance="10"
     objecttolerance="10"
     inkscape:pageopacity="0.0"
     inkscape:pageshadow="2"
     inkscape:zoom="0.81832973"
     inkscape:cx="187.22206"
     inkscape:cy="221.22365"
     inkscape:document-units="px"
     inkscape:current-layer="layer1"
     width="601px"
     height="601px"
     inkscape:window-width="1280"
     inkscape:window-height="1001"
     inkscape:window-x="-8"
     inkscape:window-y="-8"
     showgrid="false"
     fit-margin-top="0"
     fit-margin-left="0"
     fit-margin-right="0"
     fit-margin-bottom="0"
     inkscape:window-maximized="1"
     showguides="true"
     inkscape:guide-bbox="true" />
  <metadata
     id="metadata7">
    <rdf:RDF>
      <cc:Work
         rdf:about="">
        <dc:format>image/svg+xml</dc:format>
        <dc:type
           rdf:resource="http://purl.org/dc/dcmitype/StillImage" />
        <dc:title />
      </cc:Work>
    </rdf:RDF>
  </metadata>
  <g
     inkscape:label="Layer 1"
     inkscape:groupmode="layer"
     id="layer1"
     transform="translate(2554.6937,3732.4888)">
    <rect
       style="color:#000000;fill:#000000;fill-opacity:1;fill-rule:nonzero;stroke:none;stroke-width:0.8735441;marker:none;visibility:visible;display:inline;overflow:visible"
       id="rect3653"
       width="0"
       height="27.202072"
       x="578.73834"
       y="298.1684"
       rx="249.48199"
       ry="27.202072" />
    <path
       inkscape:connector-curvature="0"
       style="fill:#0c479d;fill-opacity:1;fill-rule:nonzero;stroke:none"
       d="m -2554.6937,-3732.4888 500,0 0,500 -500,0 0,-500 z"
       id="path11" />
    <path
       style="fill:#ffffff;fill-rule:nonzero;stroke:none"
       d="m -2554.6937,-3263.7388 c 0,17.2589 13.9913,31.25 31.25,31.25 l 437.5,0 c 17.2587,0 31.25,-13.9911 31.25,-31.25 l 0,-437.5 c 0,-17.2589 -13.9913,-31.25 -31.25,-31.25 l -437.5,0 c -17.2587,0 -31.25,13.9911 -31.25,31.25 z"
       id="path13"
       inkscape:connector-curvature="0"
       sodipodi:nodetypes="sssssssss" />
    <path
       style="fill:#0c479d;fill-opacity:1;fill-rule:nonzero;stroke:none"
       d="m -2070.3187,-3701.2388 c 0,-8.6288 -6.9951,-15.625 -15.625,-15.625 l -437.5,0 c -8.6299,0 -15.625,6.9962 -15.625,15.625 l 0,437.5 c 0,8.6288 6.9951,15.625 15.625,15.625 l 437.5,0 c 8.6299,0 15.625,-6.9962 15.625,-15.625 z"
       id="path15"
       inkscape:connector-curvature="0"
       sodipodi:nodetypes="sssssssss" />
    <path
       inkscape:connector-curvature="0"
       style="fill:#ffffff;fill-rule:nonzero;stroke:none"
       d="m -2460.944,-3638.7388 312.5,0 0,312.5 -312.5,0 0,-312.5 z"
       id="path17" />
    <path
       inkscape:connector-curvature="0"
       style="fill:#000000;fill-rule:nonzero;stroke:none"
       d="m -2222.9221,-3505.4047 -27.6039,0 0,45.8327 27.6039,0 c 32.5041,0 58.8534,26.3504 58.8534,58.8547 0,32.5041 -26.3493,58.8535 -58.8534,58.8535 -32.5054,0 -58.8547,-26.3494 -58.8547,-58.8535 l 0,-27.6039 -45.8326,0 0,27.6039 c 0,32.5041 -26.3515,58.8535 -58.8557,58.8535 -32.5031,0 -58.8536,-26.3494 -58.8536,-58.8535 0,-32.5043 26.3505,-58.8547 58.8536,-58.8547 l 27.605,0 0,-45.8327 -27.605,0 c -32.5031,0 -58.8536,-26.3504 -58.8536,-58.8557 0,-32.5031 26.3505,-58.8535 58.8536,-58.8535 32.5042,0 58.8557,26.3504 58.8557,58.8535 l 0,27.605 45.8326,0 0,-27.605 c 0,-32.5031 26.3493,-58.8535 58.8547,-58.8535 32.5041,0 58.8534,26.3504 58.8534,58.8535 0,32.5053 -26.3493,58.8557 -58.8534,58.8557 z"
       id="path19" />
    <path
       inkscape:connector-curvature="0"
       style="fill:#ffffff;fill-rule:nonzero;stroke:none"
       d="m -2250.526,-3536.6554 0,-27.605 c 0,-15.2456 12.3594,-27.6039 27.6039,-27.6039 15.2456,0 27.6039,12.3583 27.6039,27.6039 0,15.2456 -12.3583,27.605 -27.6039,27.605 l -27.6039,0 z"
       id="path21" />
    <path
       inkscape:connector-curvature="0"
       style="fill:#ffffff;fill-rule:nonzero;stroke:none"
       d="m -2250.526,-3400.7173 c 0,15.2444 12.3594,27.6038 27.6039,27.6038 15.2456,0 27.6039,-12.3594 27.6039,-27.6038 0,-15.2446 -12.3583,-27.6039 -27.6039,-27.6039 l -27.6039,0 0,27.6039 z"
       id="path23" />
    <path
       inkscape:connector-curvature="0"
       style="fill:#ffffff;fill-rule:nonzero;stroke:none"
       d="m -2358.8601,-3400.7173 0,-27.6039 -27.605,0 c -11.1644,0 -21.2307,6.7237 -25.5027,17.0402 -4.273,10.3134 -1.9104,22.1889 5.984,30.0823 7.8946,7.8956 19.7678,10.2581 30.0833,5.984 10.3133,-4.272 17.0404,-14.3383 17.0404,-25.5026 z"
       id="path25" />
    <path
       inkscape:connector-curvature="0"
       style="fill:#ffffff;fill-rule:nonzero;stroke:none"
       d="m -2358.8601,-3564.2604 c 0,-15.2456 -12.3594,-27.6039 -27.605,-27.6039 -15.2456,0 -27.6039,12.3583 -27.6039,27.6039 0,15.2456 12.3583,27.605 27.6039,27.605 l 27.605,0 0,-27.605 z"
       id="path27" />
    <path
       inkscape:connector-curvature="0"
       style="fill:#ffffff;fill-rule:nonzero;stroke:none"
       d="m -2327.6094,-3459.572 0,-45.8327 45.8326,0 0,45.8327 -45.8326,0 z"
       id="path29" />
  </g>
</svg>
