<svg id="icon-times-circle" xmlns="http://www.w3.org/2000/svg" width="16.6" height="16.5" viewBox="0 0 16.6 16.5"><title>icon-times-circle</title><path d="M8.3,16.6a8.3,8.3,0,1,1,8.3-8.3A8.3,8.3,0,0,1,8.3,16.6Zm3.9-6.3-2-2,2-2a0.7,0.7,0,0,0,.2-0.5,0.7,0.7,0,0,0-.2-0.5l-1-1-0.5-.2-0.5.2-2,2-2-2L5.8,4.3l-0.5.2-1,1a0.7,0.7,0,0,0-.2.5,0.7,0.7,0,0,0,.2.5l2,2-2,2a0.7,0.7,0,0,0-.2.5,0.7,0.7,0,0,0,.2.5l1,1,0.5,0.2,0.5-.2,2-1.9,2,1.9,0.5,0.2,0.5-.2,1-1a0.7,0.7,0,0,0,.2-0.5A0.7,0.7,0,0,0,12.2,10.3Z" transform="translate(0 -0.1)" style="fill:#d84c4c"/></svg>